<?xml version="1.0" encoding="utf-8"?>
<!-- Generator: Adobe Illustrator 27.0.0, SVG Export Plug-In . SVG Version: 6.00 Build 0)  -->
<svg version="1.1" id="Layer_1" xmlns="http://www.w3.org/2000/svg" xmlns:xlink="http://www.w3.org/1999/xlink" x="0px" y="0px"
	 viewBox="0 0 106.1 106" style="enable-background:new 0 0 106.1 106;" xml:space="preserve">
<style type="text/css">
	.st0{fill:#FFFFFF;}
</style>
<path class="st0" d="M66.3,1.7C38-5.6,9.1,11.4,1.7,39.7s9.7,57.2,38,64.6c28.3,7.3,57.2-9.7,64.6-38S94.6,9.1,66.3,1.7z M25.8,79.5
	l-6.9-4c-1.5-0.9-2.5-2.5-2.5-4.3V34.7c0-1.8,0.9-3.4,2.5-4.3l6.9-4V79.5z M67.3,86.9l-11.8,6.8c-1.5,0.9-3.4,0.9-5,0l-11.8-6.8
	V19.1l11.8-6.8c1.5-0.9,3.4-0.9,5,0l11.8,6.8v27.5H61c-8,0-15,5.2-17.3,12.9h23.6l0,0V86.9z M89.5,71.2c0,1.8-0.9,3.4-2.5,4.3
	l-6.9,4v-20v-13v-20l6.9,4c1.5,0.9,2.5,2.5,2.5,4.3V71.2z"/>
</svg>
